# xmcd
#
# Track frame offsets:
# 150
# 16230
# 28504
# 45785
# 61122
# 76090
# 89336
# 103603
# 117997
# 126725
# 148523
# 161238
# 175517
# 185736
# 202917
# 214340
# 227919
#
# Disc length: 3281 seconds
#
#
# Revision: 0
# Processed by: cddbd v1.5.1PL0 Copyright (c) Steve Scherf et al.
# Submitted via: FreeRIP 2.60 
#
DISCID=e10ccf11
DTITLE=Nicole Dumont - Mes plus beaux Souvenirs Juste pour vous
DYEAR=2004
DGENRE=Country
TTITLE0=Une fleur pour vous
TTITLE1=De la neige sur la bible de mon père
TTITLE2=Medley (T. Swing)
TTITLE3=Aide-moi a passer la nuit
TTITLE4=Prière d'une maman
TTITLE5=Simple passeger
TTITLE6=Medley (1)
TTITLE7=Un soir sans toi
TTITLE8=Le bûcheron
TTITLE9=Medley (Valse)
TTITLE10=Jambalaya
TTITLE11=T'envoler
TTITLE12=Hommage aux bûcherons
TTITLE13=Les p'tits solos
TTITLE14=Vole colombe
TTITLE15=Medley (2)
TTITLE16=Un jour à la fois
EXTD=Chauffeur a la RTL
EXTT0=
EXTT1=
EXTT2=
EXTT3=
EXTT4=
EXTT5=
EXTT6=
EXTT7=
EXTT8=
EXTT9=
EXTT10=
EXTT11=
EXTT12=
EXTT13=
EXTT14=
EXTT15=
EXTT16=
PLAYORDER=
